<mxfile host="Electron" agent="Mozilla/5.0 (Windows NT 10.0; Win64; x64) AppleWebKit/537.36 (KHTML, like Gecko) draw.io/28.1.2 Chrome/138.0.7204.243 Electron/37.4.0 Safari/537.36" version="28.1.2">
  <diagram name="Page-1" id="929967ad-93f9-6ef4-fab6-5d389245f69c">
    <mxGraphModel dx="4401.5" dy="1978" grid="1" gridSize="10" guides="1" tooltips="1" connect="1" arrows="1" fold="1" page="1" pageScale="1.5" pageWidth="1169" pageHeight="826" background="none" math="0" shadow="0">
      <root>
        <mxCell id="0" style=";html=1;" />
        <mxCell id="1" style=";html=1;" parent="0" />
        <mxCell id="1672d66443f91eb5-23" value="Модуль Мерчанты" style="text;strokeColor=none;fillColor=none;html=1;fontSize=24;fontStyle=1;verticalAlign=middle;align=center;" parent="1" vertex="1">
          <mxGeometry x="-240" y="40" width="1510" height="40" as="geometry" />
        </mxCell>
        <mxCell id="pF2w6Pb8Hnk9zaaPXWxI-1" value="Репозиторий мерчантов" style="shape=module;align=left;spacingLeft=20;align=center;verticalAlign=top;whiteSpace=wrap;html=1;" vertex="1" parent="1">
          <mxGeometry x="630" y="240" width="410" height="200" as="geometry" />
        </mxCell>
        <mxCell id="pF2w6Pb8Hnk9zaaPXWxI-2" value="Личный кабинет" style="shape=module;align=left;spacingLeft=20;align=center;verticalAlign=top;whiteSpace=wrap;html=1;" vertex="1" parent="1">
          <mxGeometry x="120" y="240" width="400" height="200" as="geometry" />
        </mxCell>
        <mxCell id="pF2w6Pb8Hnk9zaaPXWxI-3" value="Репозиторий финансовой информации" style="shape=module;align=left;spacingLeft=20;align=center;verticalAlign=top;whiteSpace=wrap;html=1;" vertex="1" parent="1">
          <mxGeometry x="630" y="640" width="410" height="200" as="geometry" />
        </mxCell>
        <mxCell id="pF2w6Pb8Hnk9zaaPXWxI-4" value="Модуль отчётности" style="shape=module;align=left;spacingLeft=20;align=center;verticalAlign=top;whiteSpace=wrap;html=1;" vertex="1" parent="1">
          <mxGeometry x="120" y="640" width="400" height="200" as="geometry" />
        </mxCell>
        <mxCell id="pF2w6Pb8Hnk9zaaPXWxI-5" value="Процессинг мерчантов" style="shape=module;align=left;spacingLeft=20;align=center;verticalAlign=top;whiteSpace=wrap;html=1;" vertex="1" parent="1">
          <mxGeometry x="1150" y="440" width="400" height="200" as="geometry" />
        </mxCell>
        <mxCell id="pF2w6Pb8Hnk9zaaPXWxI-7" value="" style="rounded=0;orthogonalLoop=1;jettySize=auto;html=1;endArrow=halfCircle;endFill=0;endSize=6;strokeWidth=1;sketch=0;" edge="1" target="pF2w6Pb8Hnk9zaaPXWxI-9" parent="1">
          <mxGeometry relative="1" as="geometry">
            <mxPoint x="1160" y="520" as="sourcePoint" />
            <Array as="points">
              <mxPoint x="1100" y="520" />
              <mxPoint x="1100" y="340" />
            </Array>
          </mxGeometry>
        </mxCell>
        <mxCell id="pF2w6Pb8Hnk9zaaPXWxI-8" value="" style="rounded=0;orthogonalLoop=1;jettySize=auto;html=1;endArrow=oval;endFill=0;sketch=0;sourcePerimeterSpacing=0;targetPerimeterSpacing=0;endSize=10;" edge="1" target="pF2w6Pb8Hnk9zaaPXWxI-9" parent="1">
          <mxGeometry relative="1" as="geometry">
            <mxPoint x="1040" y="340" as="sourcePoint" />
          </mxGeometry>
        </mxCell>
        <mxCell id="pF2w6Pb8Hnk9zaaPXWxI-9" value="" style="ellipse;whiteSpace=wrap;html=1;align=center;aspect=fixed;fillColor=none;strokeColor=none;resizable=0;perimeter=centerPerimeter;rotatable=0;allowArrows=0;points=[];outlineConnect=1;" vertex="1" parent="1">
          <mxGeometry x="1055" y="335" width="10" height="10" as="geometry" />
        </mxCell>
        <mxCell id="pF2w6Pb8Hnk9zaaPXWxI-10" value="" style="rounded=0;orthogonalLoop=1;jettySize=auto;html=1;endArrow=halfCircle;endFill=0;endSize=6;strokeWidth=1;sketch=0;exitX=0.025;exitY=0.6;exitDx=0;exitDy=0;exitPerimeter=0;" edge="1" parent="1" source="pF2w6Pb8Hnk9zaaPXWxI-5">
          <mxGeometry relative="1" as="geometry">
            <mxPoint x="1080" y="625" as="sourcePoint" />
            <mxPoint x="1080" y="740" as="targetPoint" />
            <Array as="points">
              <mxPoint x="1100" y="560" />
              <mxPoint x="1100" y="620" />
              <mxPoint x="1100" y="740" />
            </Array>
          </mxGeometry>
        </mxCell>
        <mxCell id="pF2w6Pb8Hnk9zaaPXWxI-11" value="" style="rounded=0;orthogonalLoop=1;jettySize=auto;html=1;endArrow=oval;endFill=0;sketch=0;sourcePerimeterSpacing=0;targetPerimeterSpacing=0;endSize=10;exitX=1;exitY=0.5;exitDx=0;exitDy=0;" edge="1" parent="1" source="pF2w6Pb8Hnk9zaaPXWxI-3">
          <mxGeometry relative="1" as="geometry">
            <mxPoint x="1040" y="625" as="sourcePoint" />
            <mxPoint x="1080" y="740" as="targetPoint" />
          </mxGeometry>
        </mxCell>
        <mxCell id="pF2w6Pb8Hnk9zaaPXWxI-12" value="" style="ellipse;whiteSpace=wrap;html=1;align=center;aspect=fixed;fillColor=none;strokeColor=none;resizable=0;perimeter=centerPerimeter;rotatable=0;allowArrows=0;points=[];outlineConnect=1;" vertex="1" parent="1">
          <mxGeometry x="1100" y="610" width="10" height="10" as="geometry" />
        </mxCell>
        <mxCell id="pF2w6Pb8Hnk9zaaPXWxI-13" value="" style="rounded=0;orthogonalLoop=1;jettySize=auto;html=1;endArrow=halfCircle;endFill=0;endSize=6;strokeWidth=1;sketch=0;exitX=0.997;exitY=0.398;exitDx=0;exitDy=0;exitPerimeter=0;" edge="1" parent="1" source="pF2w6Pb8Hnk9zaaPXWxI-2">
          <mxGeometry relative="1" as="geometry">
            <mxPoint x="610" y="350" as="sourcePoint" />
            <mxPoint x="590" y="320" as="targetPoint" />
          </mxGeometry>
        </mxCell>
        <mxCell id="pF2w6Pb8Hnk9zaaPXWxI-14" value="" style="rounded=0;orthogonalLoop=1;jettySize=auto;html=1;endArrow=oval;endFill=0;sketch=0;sourcePerimeterSpacing=0;targetPerimeterSpacing=0;endSize=10;exitX=0.023;exitY=0.399;exitDx=0;exitDy=0;exitPerimeter=0;" edge="1" parent="1" source="pF2w6Pb8Hnk9zaaPXWxI-1">
          <mxGeometry relative="1" as="geometry">
            <mxPoint x="570" y="350" as="sourcePoint" />
            <mxPoint x="590" y="320" as="targetPoint" />
          </mxGeometry>
        </mxCell>
        <mxCell id="pF2w6Pb8Hnk9zaaPXWxI-15" value="" style="ellipse;whiteSpace=wrap;html=1;align=center;aspect=fixed;fillColor=none;strokeColor=none;resizable=0;perimeter=centerPerimeter;rotatable=0;allowArrows=0;points=[];outlineConnect=1;" vertex="1" parent="1">
          <mxGeometry x="585" y="345" width="10" height="10" as="geometry" />
        </mxCell>
        <mxCell id="pF2w6Pb8Hnk9zaaPXWxI-16" value="" style="rounded=0;orthogonalLoop=1;jettySize=auto;html=1;endArrow=halfCircle;endFill=0;endSize=6;strokeWidth=1;sketch=0;exitX=1.001;exitY=0.6;exitDx=0;exitDy=0;exitPerimeter=0;" edge="1" parent="1" source="pF2w6Pb8Hnk9zaaPXWxI-2">
          <mxGeometry relative="1" as="geometry">
            <mxPoint x="810" y="475" as="sourcePoint" />
            <mxPoint x="600" y="760" as="targetPoint" />
            <Array as="points">
              <mxPoint x="560" y="360" />
              <mxPoint x="560" y="760" />
            </Array>
          </mxGeometry>
        </mxCell>
        <mxCell id="pF2w6Pb8Hnk9zaaPXWxI-19" value="" style="rounded=0;orthogonalLoop=1;jettySize=auto;html=1;endArrow=oval;endFill=0;sketch=0;sourcePerimeterSpacing=0;targetPerimeterSpacing=0;endSize=10;exitX=0.024;exitY=0.602;exitDx=0;exitDy=0;exitPerimeter=0;" edge="1" parent="1" source="pF2w6Pb8Hnk9zaaPXWxI-3">
          <mxGeometry relative="1" as="geometry">
            <mxPoint x="639" y="598" as="sourcePoint" />
            <mxPoint x="600" y="760" as="targetPoint" />
          </mxGeometry>
        </mxCell>
        <mxCell id="pF2w6Pb8Hnk9zaaPXWxI-18" value="" style="ellipse;whiteSpace=wrap;html=1;align=center;aspect=fixed;fillColor=none;strokeColor=none;resizable=0;perimeter=centerPerimeter;rotatable=0;allowArrows=0;points=[];outlineConnect=1;" vertex="1" parent="1">
          <mxGeometry x="595" y="590" width="10" height="10" as="geometry" />
        </mxCell>
        <mxCell id="pF2w6Pb8Hnk9zaaPXWxI-21" value="" style="ellipse;whiteSpace=wrap;html=1;align=center;aspect=fixed;fillColor=none;strokeColor=none;resizable=0;perimeter=centerPerimeter;rotatable=0;allowArrows=0;points=[];outlineConnect=1;" vertex="1" parent="1">
          <mxGeometry x="540" y="710" width="10" height="10" as="geometry" />
        </mxCell>
        <mxCell id="pF2w6Pb8Hnk9zaaPXWxI-22" value="" style="rounded=0;orthogonalLoop=1;jettySize=auto;html=1;endArrow=halfCircle;endFill=0;endSize=6;strokeWidth=1;sketch=0;exitX=1.001;exitY=0.601;exitDx=0;exitDy=0;exitPerimeter=0;" edge="1" parent="1" source="pF2w6Pb8Hnk9zaaPXWxI-4">
          <mxGeometry relative="1" as="geometry">
            <mxPoint x="585" y="715" as="sourcePoint" />
            <mxPoint x="600" y="760" as="targetPoint" />
            <Array as="points" />
          </mxGeometry>
        </mxCell>
        <mxCell id="pF2w6Pb8Hnk9zaaPXWxI-24" value="" style="ellipse;whiteSpace=wrap;html=1;align=center;aspect=fixed;fillColor=none;strokeColor=none;resizable=0;perimeter=centerPerimeter;rotatable=0;allowArrows=0;points=[];outlineConnect=1;" vertex="1" parent="1">
          <mxGeometry x="560" y="710" width="10" height="10" as="geometry" />
        </mxCell>
        <mxCell id="pF2w6Pb8Hnk9zaaPXWxI-25" value="" style="rounded=0;orthogonalLoop=1;jettySize=auto;html=1;endArrow=halfCircle;endFill=0;endSize=6;strokeWidth=1;sketch=0;exitX=0.999;exitY=0.301;exitDx=0;exitDy=0;exitPerimeter=0;" edge="1" parent="1" source="pF2w6Pb8Hnk9zaaPXWxI-4">
          <mxGeometry relative="1" as="geometry">
            <mxPoint x="600" y="875" as="sourcePoint" />
            <mxPoint x="590" y="320" as="targetPoint" />
            <Array as="points">
              <mxPoint x="590" y="700" />
            </Array>
          </mxGeometry>
        </mxCell>
        <mxCell id="pF2w6Pb8Hnk9zaaPXWxI-27" value="" style="ellipse;whiteSpace=wrap;html=1;align=center;aspect=fixed;fillColor=none;strokeColor=none;resizable=0;perimeter=centerPerimeter;rotatable=0;allowArrows=0;points=[];outlineConnect=1;" vertex="1" parent="1">
          <mxGeometry x="575" y="870" width="10" height="10" as="geometry" />
        </mxCell>
        <mxCell id="pF2w6Pb8Hnk9zaaPXWxI-29" value="" style="rounded=0;orthogonalLoop=1;jettySize=auto;html=1;endArrow=halfCircle;endFill=0;endSize=6;strokeWidth=1;sketch=0;exitX=0.806;exitY=0.004;exitDx=0;exitDy=0;exitPerimeter=0;" edge="1" parent="1" source="pF2w6Pb8Hnk9zaaPXWxI-1">
          <mxGeometry relative="1" as="geometry">
            <mxPoint x="1350" y="695" as="sourcePoint" />
            <mxPoint x="960" y="120" as="targetPoint" />
          </mxGeometry>
        </mxCell>
        <mxCell id="pF2w6Pb8Hnk9zaaPXWxI-32" value="API безопасности" style="edgeLabel;html=1;align=center;verticalAlign=middle;resizable=0;points=[];" vertex="1" connectable="0" parent="pF2w6Pb8Hnk9zaaPXWxI-29">
          <mxGeometry x="-0.001" y="2" relative="1" as="geometry">
            <mxPoint as="offset" />
          </mxGeometry>
        </mxCell>
        <mxCell id="pF2w6Pb8Hnk9zaaPXWxI-31" value="" style="ellipse;whiteSpace=wrap;html=1;align=center;aspect=fixed;fillColor=none;strokeColor=none;resizable=0;perimeter=centerPerimeter;rotatable=0;allowArrows=0;points=[];outlineConnect=1;" vertex="1" parent="1">
          <mxGeometry x="1225" y="690" width="10" height="10" as="geometry" />
        </mxCell>
        <mxCell id="pF2w6Pb8Hnk9zaaPXWxI-33" value="" style="rounded=0;orthogonalLoop=1;jettySize=auto;html=1;endArrow=halfCircle;endFill=0;endSize=6;strokeWidth=1;sketch=0;" edge="1" parent="1">
          <mxGeometry relative="1" as="geometry">
            <mxPoint x="960" y="640" as="sourcePoint" />
            <mxPoint x="960" y="520" as="targetPoint" />
          </mxGeometry>
        </mxCell>
        <mxCell id="pF2w6Pb8Hnk9zaaPXWxI-34" value="API безопасности" style="edgeLabel;html=1;align=center;verticalAlign=middle;resizable=0;points=[];" vertex="1" connectable="0" parent="pF2w6Pb8Hnk9zaaPXWxI-33">
          <mxGeometry x="-0.001" y="2" relative="1" as="geometry">
            <mxPoint as="offset" />
          </mxGeometry>
        </mxCell>
        <mxCell id="pF2w6Pb8Hnk9zaaPXWxI-35" value="" style="rounded=0;orthogonalLoop=1;jettySize=auto;html=1;endArrow=halfCircle;endFill=0;endSize=6;strokeWidth=1;sketch=0;exitX=0.799;exitY=0.002;exitDx=0;exitDy=0;exitPerimeter=0;" edge="1" parent="1" source="pF2w6Pb8Hnk9zaaPXWxI-2">
          <mxGeometry relative="1" as="geometry">
            <mxPoint x="1010" y="281" as="sourcePoint" />
            <mxPoint x="440" y="120" as="targetPoint" />
          </mxGeometry>
        </mxCell>
        <mxCell id="pF2w6Pb8Hnk9zaaPXWxI-36" value="API безопасности" style="edgeLabel;html=1;align=center;verticalAlign=middle;resizable=0;points=[];" vertex="1" connectable="0" parent="pF2w6Pb8Hnk9zaaPXWxI-35">
          <mxGeometry x="-0.001" y="2" relative="1" as="geometry">
            <mxPoint as="offset" />
          </mxGeometry>
        </mxCell>
        <mxCell id="pF2w6Pb8Hnk9zaaPXWxI-37" value="" style="rounded=0;orthogonalLoop=1;jettySize=auto;html=1;endArrow=halfCircle;endFill=0;endSize=6;strokeWidth=1;sketch=0;exitX=0.799;exitY=0.002;exitDx=0;exitDy=0;exitPerimeter=0;" edge="1" parent="1" source="pF2w6Pb8Hnk9zaaPXWxI-4">
          <mxGeometry relative="1" as="geometry">
            <mxPoint x="460" y="621" as="sourcePoint" />
            <mxPoint x="440" y="520" as="targetPoint" />
          </mxGeometry>
        </mxCell>
        <mxCell id="pF2w6Pb8Hnk9zaaPXWxI-38" value="API безопасности" style="edgeLabel;html=1;align=center;verticalAlign=middle;resizable=0;points=[];" vertex="1" connectable="0" parent="pF2w6Pb8Hnk9zaaPXWxI-37">
          <mxGeometry x="-0.001" y="2" relative="1" as="geometry">
            <mxPoint as="offset" />
          </mxGeometry>
        </mxCell>
        <mxCell id="pF2w6Pb8Hnk9zaaPXWxI-39" value="" style="rounded=0;orthogonalLoop=1;jettySize=auto;html=1;endArrow=halfCircle;endFill=0;endSize=6;strokeWidth=1;sketch=0;exitX=0.725;exitY=0.001;exitDx=0;exitDy=0;exitPerimeter=0;" edge="1" parent="1" source="pF2w6Pb8Hnk9zaaPXWxI-5">
          <mxGeometry relative="1" as="geometry">
            <mxPoint x="1440" y="420" as="sourcePoint" />
            <mxPoint x="1440" y="320" as="targetPoint" />
          </mxGeometry>
        </mxCell>
        <mxCell id="pF2w6Pb8Hnk9zaaPXWxI-40" value="API безопасности" style="edgeLabel;html=1;align=center;verticalAlign=middle;resizable=0;points=[];" vertex="1" connectable="0" parent="pF2w6Pb8Hnk9zaaPXWxI-39">
          <mxGeometry x="-0.001" y="2" relative="1" as="geometry">
            <mxPoint as="offset" />
          </mxGeometry>
        </mxCell>
        <mxCell id="pF2w6Pb8Hnk9zaaPXWxI-49" value="" style="rounded=0;orthogonalLoop=1;jettySize=auto;html=1;endArrow=oval;endFill=0;sketch=0;sourcePerimeterSpacing=0;targetPerimeterSpacing=0;endSize=10;exitX=0;exitY=0.5;exitDx=10;exitDy=0;exitPerimeter=0;" edge="1" target="pF2w6Pb8Hnk9zaaPXWxI-50" parent="1" source="pF2w6Pb8Hnk9zaaPXWxI-2">
          <mxGeometry relative="1" as="geometry">
            <mxPoint x="90" y="505" as="sourcePoint" />
          </mxGeometry>
        </mxCell>
        <mxCell id="pF2w6Pb8Hnk9zaaPXWxI-51" value="API ЛК мерчанта" style="edgeLabel;html=1;align=center;verticalAlign=middle;resizable=0;points=[];" vertex="1" connectable="0" parent="pF2w6Pb8Hnk9zaaPXWxI-49">
          <mxGeometry x="0.0164" relative="1" as="geometry">
            <mxPoint as="offset" />
          </mxGeometry>
        </mxCell>
        <mxCell id="pF2w6Pb8Hnk9zaaPXWxI-50" value="" style="ellipse;whiteSpace=wrap;html=1;align=center;aspect=fixed;fillColor=none;strokeColor=none;resizable=0;perimeter=centerPerimeter;rotatable=0;allowArrows=0;points=[];outlineConnect=1;" vertex="1" parent="1">
          <mxGeometry x="10" y="335" width="10" height="10" as="geometry" />
        </mxCell>
        <mxCell id="pF2w6Pb8Hnk9zaaPXWxI-52" value="Сайт мерчанта" style="shape=module;align=left;spacingLeft=20;align=center;verticalAlign=top;whiteSpace=wrap;html=1;" vertex="1" parent="1">
          <mxGeometry x="-270" y="287.5" width="190" height="80" as="geometry" />
        </mxCell>
        <mxCell id="pF2w6Pb8Hnk9zaaPXWxI-53" value="Мобильное приложение для мерчанта" style="shape=module;align=left;spacingLeft=20;align=center;verticalAlign=top;whiteSpace=wrap;html=1;" vertex="1" parent="1">
          <mxGeometry x="-250" y="312.5" width="190" height="80" as="geometry" />
        </mxCell>
        <mxCell id="pF2w6Pb8Hnk9zaaPXWxI-54" value="" style="rounded=0;orthogonalLoop=1;jettySize=auto;html=1;endArrow=halfCircle;endFill=0;endSize=6;strokeWidth=1;sketch=0;exitX=0.996;exitY=0.349;exitDx=0;exitDy=0;exitPerimeter=0;" edge="1" target="pF2w6Pb8Hnk9zaaPXWxI-56" parent="1" source="pF2w6Pb8Hnk9zaaPXWxI-53">
          <mxGeometry relative="1" as="geometry">
            <mxPoint x="-20" y="505" as="sourcePoint" />
          </mxGeometry>
        </mxCell>
        <mxCell id="pF2w6Pb8Hnk9zaaPXWxI-56" value="" style="ellipse;whiteSpace=wrap;html=1;align=center;aspect=fixed;fillColor=none;strokeColor=none;resizable=0;perimeter=centerPerimeter;rotatable=0;allowArrows=0;points=[];outlineConnect=1;" vertex="1" parent="1">
          <mxGeometry x="10" y="335" width="10" height="10" as="geometry" />
        </mxCell>
        <mxCell id="pF2w6Pb8Hnk9zaaPXWxI-59" value="" style="rounded=0;orthogonalLoop=1;jettySize=auto;html=1;endArrow=oval;endFill=0;sketch=0;sourcePerimeterSpacing=0;targetPerimeterSpacing=0;endSize=10;exitX=0.024;exitY=0.598;exitDx=0;exitDy=0;exitPerimeter=0;" edge="1" parent="1" source="pF2w6Pb8Hnk9zaaPXWxI-4">
          <mxGeometry relative="1" as="geometry">
            <mxPoint x="171" y="460" as="sourcePoint" />
            <mxPoint x="20" y="760" as="targetPoint" />
          </mxGeometry>
        </mxCell>
        <mxCell id="pF2w6Pb8Hnk9zaaPXWxI-60" value="API отчётов" style="edgeLabel;html=1;align=center;verticalAlign=middle;resizable=0;points=[];" vertex="1" connectable="0" parent="pF2w6Pb8Hnk9zaaPXWxI-59">
          <mxGeometry x="0.0164" relative="1" as="geometry">
            <mxPoint as="offset" />
          </mxGeometry>
        </mxCell>
        <mxCell id="pF2w6Pb8Hnk9zaaPXWxI-61" value="" style="rounded=0;orthogonalLoop=1;jettySize=auto;html=1;endArrow=halfCircle;endFill=0;endSize=6;strokeWidth=1;sketch=0;exitX=0.988;exitY=0.678;exitDx=0;exitDy=0;exitPerimeter=0;" edge="1" parent="1" source="pF2w6Pb8Hnk9zaaPXWxI-53">
          <mxGeometry relative="1" as="geometry">
            <mxPoint x="-20" y="460" as="sourcePoint" />
            <mxPoint x="20" y="760" as="targetPoint" />
            <Array as="points">
              <mxPoint x="-20" y="367" />
              <mxPoint x="-20" y="760" />
            </Array>
          </mxGeometry>
        </mxCell>
        <mxCell id="pF2w6Pb8Hnk9zaaPXWxI-64" value="" style="rounded=0;orthogonalLoop=1;jettySize=auto;html=1;endArrow=oval;endFill=0;sketch=0;sourcePerimeterSpacing=0;targetPerimeterSpacing=0;endSize=10;exitX=1;exitY=0.5;exitDx=0;exitDy=0;" edge="1" target="pF2w6Pb8Hnk9zaaPXWxI-65" parent="1" source="pF2w6Pb8Hnk9zaaPXWxI-5">
          <mxGeometry relative="1" as="geometry">
            <mxPoint x="1660" y="545" as="sourcePoint" />
          </mxGeometry>
        </mxCell>
        <mxCell id="pF2w6Pb8Hnk9zaaPXWxI-67" value="API процессинга&lt;div&gt;&amp;nbsp;мерчанта&lt;/div&gt;" style="edgeLabel;html=1;align=center;verticalAlign=middle;resizable=0;points=[];" vertex="1" connectable="0" parent="pF2w6Pb8Hnk9zaaPXWxI-64">
          <mxGeometry x="0.3409" relative="1" as="geometry">
            <mxPoint x="-21" as="offset" />
          </mxGeometry>
        </mxCell>
        <mxCell id="pF2w6Pb8Hnk9zaaPXWxI-65" value="" style="ellipse;whiteSpace=wrap;html=1;align=center;aspect=fixed;fillColor=none;strokeColor=none;resizable=0;perimeter=centerPerimeter;rotatable=0;allowArrows=0;points=[];outlineConnect=1;" vertex="1" parent="1">
          <mxGeometry x="1710" y="535" width="10" height="10" as="geometry" />
        </mxCell>
      </root>
    </mxGraphModel>
  </diagram>
</mxfile>
